<svg xmlns="http://www.w3.org/2000/svg" viewBox="0 0 1920 1080" fill="none">
  <defs>
    <style>
      .t { stroke: #8B7A6E; stroke-width: 1.2; stroke-linecap: round; fill: none; }
      .tt { stroke: #8B7A6E; stroke-width: 0.7; stroke-linecap: round; fill: none; }
      .n { fill: #8B7A6E; }
      .nr { stroke: #8B7A6E; stroke-width: 0.8; fill: none; }
      .cp { fill: #6B5E52; opacity: 0.12; }
      .hatch { stroke: #6B5E52; stroke-width: 0.4; opacity: 0.18; }
    </style>
  </defs>

  <!-- ═══ BOTTOM-LEFT CORNER — dense copper pour + traces ═══ -->
  <!-- Copper pour hatching -->
  <rect class="cp" x="0" y="780" width="380" height="300" rx="0"/>
  <rect class="cp" x="0" y="820" width="320" height="260" rx="0"/>
  <rect class="cp" x="0" y="860" width="260" height="220" rx="0"/>
  <line class="hatch" x1="0" y1="800" x2="360" y2="800"/>
  <line class="hatch" x1="0" y1="820" x2="340" y2="820"/>
  <line class="hatch" x1="0" y1="840" x2="320" y2="840"/>
  <line class="hatch" x1="0" y1="860" x2="300" y2="860"/>
  <line class="hatch" x1="0" y1="880" x2="280" y2="880"/>
  <line class="hatch" x1="0" y1="900" x2="260" y2="900"/>
  <line class="hatch" x1="0" y1="920" x2="240" y2="920"/>
  <line class="hatch" x1="0" y1="940" x2="220" y2="940"/>
  <line class="hatch" x1="0" y1="960" x2="200" y2="960"/>
  <line class="hatch" x1="0" y1="980" x2="180" y2="980"/>
  <line class="hatch" x1="0" y1="1000" x2="160" y2="1000"/>
  <line class="hatch" x1="0" y1="1020" x2="140" y2="1020"/>
  <line class="hatch" x1="0" y1="1040" x2="120" y2="1040"/>
  <line class="hatch" x1="0" y1="1060" x2="100" y2="1060"/>
  <!-- Diagonal hatching -->
  <line class="hatch" x1="0" y1="850" x2="200" y2="1050"/>
  <line class="hatch" x1="0" y1="900" x2="150" y2="1050"/>
  <line class="hatch" x1="0" y1="950" x2="100" y2="1050"/>
  <line class="hatch" x1="50" y1="800" x2="300" y2="1050"/>
  <line class="hatch" x1="100" y1="800" x2="350" y2="1050"/>
  <line class="hatch" x1="150" y1="800" x2="360" y2="1010"/>

  <!-- BL traces radiating inward -->
  <path class="t" d="M0 780 H100 L160 720 H260 L320 660 H400"/>
  <path class="t" d="M0 760 H80 L120 720 V660 L180 600 H280"/>
  <path class="t" d="M0 740 H60 V680 L120 620 H200 L260 560 H340"/>
  <path class="t" d="M0 700 H40 L80 660 H140 L200 600 V540 L260 480"/>
  <path class="tt" d="M0 720 H50 L90 680 H160"/>
  <path class="t" d="M0 660 H80 L140 600 H220 L280 540 V480 L340 420"/>
  <path class="tt" d="M0 640 H60 L100 600 V540"/>
  <path class="t" d="M0 600 H100 L160 540 H240 V480 L300 420 H380"/>
  <path class="tt" d="M0 580 H40 L80 540 H140 L180 500"/>
  <path class="t" d="M0 540 H60 L120 480 H200 L260 420 H360"/>
  <path class="tt" d="M40 1080 V1020 L100 960 H180 L240 900"/>
  <path class="t" d="M100 1080 V1000 L160 940 H240 V880 L300 820 H380"/>
  <path class="t" d="M180 1080 V1020 L240 960 H320 L380 900 V840"/>
  <path class="tt" d="M260 1080 V1040 L300 1000 H360"/>
  <path class="t" d="M340 1080 V1000 L400 940 H460 L500 900"/>
  <!-- BL parallel bus runs -->
  <path class="tt" d="M0 810 H60 L100 770 H180"/>
  <path class="tt" d="M0 830 H50 L90 790 H170"/>
  <path class="tt" d="M0 850 H40 L80 810 H160"/>

  <!-- ═══ TOP-RIGHT CORNER — dense copper pour + traces ═══ -->
  <rect class="cp" x="1540" y="0" width="380" height="300" rx="0"/>
  <rect class="cp" x="1600" y="0" width="320" height="260" rx="0"/>
  <rect class="cp" x="1660" y="0" width="260" height="220" rx="0"/>
  <line class="hatch" x1="1560" y1="20" x2="1920" y2="20"/>
  <line class="hatch" x1="1580" y1="40" x2="1920" y2="40"/>
  <line class="hatch" x1="1600" y1="60" x2="1920" y2="60"/>
  <line class="hatch" x1="1620" y1="80" x2="1920" y2="80"/>
  <line class="hatch" x1="1640" y1="100" x2="1920" y2="100"/>
  <line class="hatch" x1="1660" y1="120" x2="1920" y2="120"/>
  <line class="hatch" x1="1680" y1="140" x2="1920" y2="140"/>
  <line class="hatch" x1="1700" y1="160" x2="1920" y2="160"/>
  <line class="hatch" x1="1720" y1="180" x2="1920" y2="180"/>
  <line class="hatch" x1="1740" y1="200" x2="1920" y2="200"/>
  <line class="hatch" x1="1760" y1="220" x2="1920" y2="220"/>
  <line class="hatch" x1="1780" y1="240" x2="1920" y2="240"/>
  <!-- Diagonal hatching TR -->
  <line class="hatch" x1="1600" y1="0" x2="1920" y2="260"/>
  <line class="hatch" x1="1660" y1="0" x2="1920" y2="200"/>
  <line class="hatch" x1="1720" y1="0" x2="1920" y2="140"/>
  <line class="hatch" x1="1780" y1="0" x2="1920" y2="80"/>

  <!-- TR traces radiating inward -->
  <path class="t" d="M1920 80 H1820 L1760 140 H1660 L1600 200 H1520"/>
  <path class="t" d="M1920 120 H1840 L1800 160 V240 L1740 300 H1640"/>
  <path class="t" d="M1920 160 H1860 V220 L1800 280 H1700 L1640 340 H1560"/>
  <path class="t" d="M1920 220 H1860 L1800 280 V340 L1740 400 H1640"/>
  <path class="tt" d="M1920 200 H1870 L1830 240 H1760"/>
  <path class="t" d="M1920 280 H1840 L1780 340 H1700 V400 L1640 460 H1540"/>
  <path class="tt" d="M1920 320 H1860 L1820 360 V420"/>
  <path class="t" d="M1920 380 H1820 L1760 440 H1680 V500 L1620 560 H1540"/>
  <path class="tt" d="M1920 420 H1880 L1840 460 H1780 L1740 500"/>
  <path class="t" d="M1700 0 V80 L1640 140 H1560 L1500 200 H1420"/>
  <path class="t" d="M1620 0 V60 L1560 120 H1480 L1420 180 V260"/>
  <path class="t" d="M1540 0 V100 L1480 160 V240 L1420 300 H1340"/>
  <path class="tt" d="M1800 0 V40 L1740 100 H1660"/>
  <path class="tt" d="M1860 0 V60 L1820 100 H1780"/>
  <!-- TR parallel bus -->
  <path class="tt" d="M1920 100 H1850 L1810 140 H1740"/>
  <path class="tt" d="M1920 140 H1870 L1830 180 H1760"/>

  <!-- ═══ TOP-LEFT CORNER — medium density ═══ -->
  <path class="t" d="M0 120 H100 L160 60 V0"/>
  <path class="t" d="M0 160 H80 L140 100 H220 L280 40 V0"/>
  <path class="tt" d="M0 80 H60 L100 40 V0"/>
  <path class="t" d="M0 200 H120 L180 140 H280 L340 80 V0"/>
  <path class="tt" d="M0 240 H80 L120 200 V140 L180 80"/>
  <path class="t" d="M0 300 H100 L160 240 V180 L220 120 H320"/>
  <path class="tt" d="M0 340 H60 L100 300 H160"/>
  <path class="t" d="M0 380 H80 L140 320 H240 L300 260"/>
  <path class="t" d="M60 0 V80 L120 140 H200"/>
  <path class="tt" d="M140 0 V60 L200 120 V180"/>
  <path class="t" d="M240 0 V40 L300 100 H380 L440 40 V0"/>
  <path class="tt" d="M380 0 V60 L420 100 H480"/>
  <path class="t" d="M480 0 V80 L540 140 H600"/>
  <!-- TL nodes -->
  <circle class="n" cx="100" cy="120" r="3"/>
  <circle class="n" cx="160" cy="60" r="2.5"/>
  <circle class="n" cx="280" cy="40" r="2.5"/>
  <circle class="n" cx="180" cy="140" r="3"/>
  <circle class="n" cx="300" cy="100" r="2"/>
  <circle class="nr" cx="220" cy="120" r="5"/>
  <circle class="nr" cx="120" cy="200" r="5"/>

  <!-- ═══ BOTTOM-RIGHT CORNER — medium density ═══ -->
  <path class="t" d="M1920 780 H1820 L1760 840 H1660 L1600 900"/>
  <path class="t" d="M1920 820 H1840 L1780 880 V940 L1720 1000 V1080"/>
  <path class="tt" d="M1920 860 H1860 L1820 900 H1760"/>
  <path class="t" d="M1920 920 H1840 V980 L1780 1040 V1080"/>
  <path class="t" d="M1920 960 H1860 L1800 1020 H1720 V1080"/>
  <path class="tt" d="M1920 1000 H1880 L1840 1040 V1080"/>
  <path class="t" d="M1600 1080 V1020 L1660 960 H1740 L1800 900 V840"/>
  <path class="t" d="M1500 1080 V1000 L1560 940 H1640 V880"/>
  <path class="tt" d="M1420 1080 V1040 L1480 980 H1560"/>
  <path class="t" d="M1700 1080 V1040 L1740 1000 H1800"/>
  <!-- BR nodes -->
  <circle class="n" cx="1820" cy="780" r="3"/>
  <circle class="n" cx="1660" cy="840" r="2.5"/>
  <circle class="n" cx="1780" cy="880" r="3"/>
  <circle class="n" cx="1660" cy="960" r="2.5"/>
  <circle class="nr" cx="1740" cy="900" r="5"/>

  <!-- ═══ EDGE TRACES — left and right sides ═══ -->
  <path class="tt" d="M0 440 H80 L120 480 H200"/>
  <path class="t" d="M0 480 H60 L120 420 H200 L260 360"/>
  <path class="tt" d="M0 520 H40 L80 480"/>
  <path class="t" d="M1920 500 H1840 L1780 560 H1700"/>
  <path class="tt" d="M1920 540 H1860 L1820 580 H1760"/>
  <path class="t" d="M1920 600 H1840 L1780 660 V720"/>
  <path class="tt" d="M1920 660 H1880 L1840 700 H1780"/>
  <path class="t" d="M1920 720 H1860 V760"/>

  <!-- ═══ INNER TRACES — reaching toward center but not touching ═══ -->
  <path class="tt" d="M400 660 L460 600 H520 L560 560"/>
  <path class="tt" d="M380 420 H440 L480 380"/>
  <path class="tt" d="M340 340 L400 280 H460"/>
  <path class="tt" d="M1540 380 H1480 L1440 420"/>
  <path class="tt" d="M1520 660 L1460 600 H1400 L1360 560"/>
  <path class="tt" d="M1540 480 H1480 L1440 520"/>
  <path class="tt" d="M600 140 H660 L700 180"/>
  <path class="tt" d="M500 900 L560 840 H620"/>
  <path class="tt" d="M1340 300 H1400 L1440 260"/>
  <path class="tt" d="M1420 840 L1360 780 H1300"/>

  <!-- ═══ NODES — junction circles ═══ -->
  <!-- BL nodes -->
  <circle class="n" cx="100" cy="780" r="3"/>
  <circle class="n" cx="260" cy="560" r="3"/>
  <circle class="n" cx="160" cy="720" r="2.5"/>
  <circle class="n" cx="340" cy="660" r="2"/>
  <circle class="n" cx="400" cy="940" r="3"/>
  <circle class="n" cx="240" cy="880" r="2.5"/>
  <circle class="n" cx="300" cy="420" r="2.5"/>
  <circle class="n" cx="200" cy="600" r="3"/>
  <circle class="nr" cx="280" cy="540" r="5"/>
  <circle class="nr" cx="180" cy="680" r="5"/>
  <circle class="nr" cx="380" cy="820" r="5"/>
  <circle class="nr" cx="460" cy="600" r="4"/>

  <!-- TR nodes -->
  <circle class="n" cx="1820" cy="80" r="3"/>
  <circle class="n" cx="1660" cy="140" r="3"/>
  <circle class="n" cx="1740" cy="300" r="2.5"/>
  <circle class="n" cx="1560" cy="120" r="2.5"/>
  <circle class="n" cx="1640" cy="460" r="2"/>
  <circle class="n" cx="1480" cy="160" r="3"/>
  <circle class="n" cx="1420" cy="300" r="2.5"/>
  <circle class="nr" cx="1640" cy="340" r="5"/>
  <circle class="nr" cx="1540" cy="200" r="5"/>
  <circle class="nr" cx="1740" cy="400" r="4"/>
  <circle class="nr" cx="1420" cy="180" r="5"/>

  <!-- ═══ CENTER SCATTER — sparse particles/vias ═══ -->
  <circle class="n" cx="700" cy="380" r="1.2"/>
  <circle class="n" cx="780" cy="440" r="1"/>
  <circle class="n" cx="850" cy="360" r="1.2"/>
  <circle class="n" cx="920" cy="500" r="1"/>
  <circle class="n" cx="960" cy="420" r="1.3"/>
  <circle class="n" cx="1020" cy="480" r="1"/>
  <circle class="n" cx="1060" cy="380" r="1.2"/>
  <circle class="n" cx="1140" cy="440" r="1"/>
  <circle class="n" cx="1200" cy="520" r="1.2"/>
  <circle class="n" cx="840" cy="540" r="1"/>
  <circle class="n" cx="760" cy="600" r="1.2"/>
  <circle class="n" cx="1100" cy="600" r="1"/>
  <circle class="n" cx="1180" cy="360" r="1.2"/>
  <circle class="n" cx="680" cy="500" r="1"/>
  <circle class="n" cx="900" cy="620" r="1"/>
  <circle class="n" cx="1000" cy="340" r="1"/>
  <circle class="n" cx="1060" cy="560" r="1"/>
  <circle class="n" cx="860" cy="480" r="0.8"/>
  <circle class="n" cx="940" cy="560" r="0.8"/>
  <circle class="n" cx="1020" cy="620" r="0.8"/>
  <circle class="n" cx="780" cy="340" r="0.8"/>
  <circle class="n" cx="1140" cy="340" r="0.8"/>
  <circle class="n" cx="720" cy="560" r="0.8"/>
  <circle class="n" cx="1220" cy="460" r="0.8"/>
</svg>
