<svg xmlns="http://www.w3.org/2000/svg" viewBox="0 0 1920 1080" fill="none">
  <defs>
    <filter id="glow" x="-50%" y="-50%" width="200%" height="200%">
      <feGaussianBlur in="SourceGraphic" stdDeviation="4" result="blur"/>
      <feComposite in="SourceGraphic" in2="blur" operator="over"/>
    </filter>
    <filter id="glow-lg" x="-100%" y="-100%" width="300%" height="300%">
      <feGaussianBlur in="SourceGraphic" stdDeviation="8" result="blur"/>
      <feComposite in="SourceGraphic" in2="blur" operator="over"/>
    </filter>
    <style>
      .t  { stroke: #E8709A; stroke-width: 1.0; stroke-linecap: round; fill: none; opacity: 0.7; }
      .t2 { stroke: #E8709A; stroke-width: 0.6; stroke-linecap: round; fill: none; opacity: 0.5; }
      .t3 { stroke: #E8709A; stroke-width: 0.4; stroke-linecap: round; fill: none; opacity: 0.35; }
      .n  { fill: #E8709A; opacity: 0.9; }
      .ng { fill: #E8709A; filter: url(#glow); }
      .nb { fill: #F5A0C0; filter: url(#glow-lg); opacity: 0.6; }
    </style>
  </defs>

  <!-- ═══ TOP-LEFT ═══ -->
  <path class="t" d="M0 40 H60 L100 0"/>
  <path class="t" d="M0 55 H50 L90 15 H130 L160 0"/>
  <path class="t2" d="M0 70 H40 L80 30 H120"/>
  <path class="t" d="M0 90 H70 L110 50 V20 L130 0"/>
  <path class="t2" d="M0 110 H55 L95 70 H140 L170 40"/>
  <path class="t" d="M0 130 H80 L130 80 H180 L210 50 V0"/>
  <path class="t2" d="M0 150 H60 L100 110 V80 L140 40"/>
  <path class="t3" d="M0 170 H40 L80 130 H130"/>
  <path class="t" d="M0 200 H90 L140 150 H200 L250 100 V60"/>
  <path class="t2" d="M0 230 H70 L120 180 H180"/>
  <path class="t" d="M0 260 H100 L160 200 V160 L220 100 H280"/>
  <path class="t3" d="M0 290 H60 L110 240 H170"/>
  <path class="t2" d="M0 320 H80 L140 260 H200 L260 200"/>
  <path class="t" d="M0 360 H60 L120 300 V240 L180 180 H260"/>
  <path class="t3" d="M0 400 H50 L100 350 H160"/>
  <path class="t" d="M30 0 V50 L70 90 H120"/>
  <path class="t2" d="M70 0 V30 L110 70 V110"/>
  <path class="t" d="M120 0 V40 L160 80 H210 L250 120"/>
  <path class="t2" d="M180 0 V60 L220 100 H270"/>
  <path class="t3" d="M240 0 V50 L280 90"/>
  <path class="t" d="M300 0 V70 L340 110 V160 L380 200"/>
  <circle class="ng" cx="60" cy="40" r="3"/>
  <circle class="nb" cx="70" cy="90" r="5"/>
  <circle class="ng" cx="130" cy="80" r="3"/>
  <circle class="ng" cx="180" cy="150" r="2.5"/>
  <circle class="nb" cx="140" cy="40" r="4"/>
  <circle class="ng" cx="250" cy="100" r="3"/>
  <circle class="n" cx="200" cy="200" r="2"/>
  <circle class="nb" cx="30" cy="50" r="4"/>
  <circle class="ng" cx="260" cy="200" r="2.5"/>

  <!-- ═══ TOP-RIGHT ═══ -->
  <path class="t" d="M1920 40 H1860 L1820 0"/>
  <path class="t" d="M1920 55 H1870 L1830 15 H1790 L1760 0"/>
  <path class="t2" d="M1920 70 H1880 L1840 30 H1800"/>
  <path class="t" d="M1920 90 H1850 L1810 50 V20 L1790 0"/>
  <path class="t2" d="M1920 110 H1865 L1825 70 H1780 L1750 40"/>
  <path class="t" d="M1920 130 H1840 L1790 80 H1740 L1710 50 V0"/>
  <path class="t2" d="M1920 150 H1860 L1820 110 V80 L1780 40"/>
  <path class="t3" d="M1920 170 H1880 L1840 130 H1790"/>
  <path class="t" d="M1920 200 H1830 L1780 150 H1720 L1670 100 V60"/>
  <path class="t2" d="M1920 230 H1850 L1800 180 H1740"/>
  <path class="t" d="M1920 260 H1820 L1760 200 V160 L1700 100 H1640"/>
  <path class="t3" d="M1920 290 H1860 L1810 240 H1750"/>
  <path class="t2" d="M1920 320 H1840 L1780 260 H1720 L1660 200"/>
  <path class="t" d="M1920 360 H1860 L1800 300 V240 L1740 180 H1660"/>
  <path class="t3" d="M1920 400 H1870 L1820 350 H1760"/>
  <path class="t" d="M1890 0 V50 L1850 90 H1800"/>
  <path class="t2" d="M1850 0 V30 L1810 70 V110"/>
  <path class="t" d="M1800 0 V40 L1760 80 H1710 L1670 120"/>
  <path class="t2" d="M1740 0 V60 L1700 100 H1650"/>
  <path class="t3" d="M1680 0 V50 L1640 90"/>
  <path class="t" d="M1620 0 V70 L1580 110 V160 L1540 200"/>
  <circle class="ng" cx="1860" cy="40" r="3"/>
  <circle class="nb" cx="1850" cy="90" r="5"/>
  <circle class="ng" cx="1790" cy="80" r="3"/>
  <circle class="ng" cx="1740" cy="150" r="2.5"/>
  <circle class="nb" cx="1780" cy="40" r="4"/>
  <circle class="ng" cx="1670" cy="100" r="3"/>
  <circle class="n" cx="1720" cy="200" r="2"/>
  <circle class="nb" cx="1890" cy="50" r="4"/>
  <circle class="ng" cx="1660" cy="200" r="2.5"/>

  <!-- ═══ BOTTOM-LEFT ═══ -->
  <path class="t" d="M0 1040 H60 L100 1080"/>
  <path class="t" d="M0 1025 H50 L90 1065 H130 L160 1080"/>
  <path class="t2" d="M0 1010 H40 L80 1050 H120"/>
  <path class="t" d="M0 990 H70 L110 1030 V1060 L130 1080"/>
  <path class="t2" d="M0 970 H55 L95 1010 H140 L170 1040"/>
  <path class="t" d="M0 950 H80 L130 1000 H180 L210 1030 V1080"/>
  <path class="t2" d="M0 930 H60 L100 970 V1000 L140 1040"/>
  <path class="t3" d="M0 910 H40 L80 950 H130"/>
  <path class="t" d="M0 880 H90 L140 930 H200 L250 980 V1020"/>
  <path class="t2" d="M0 850 H70 L120 900 H180"/>
  <path class="t" d="M0 820 H100 L160 880 V920 L220 980 H280"/>
  <path class="t3" d="M0 790 H60 L110 840 H170"/>
  <path class="t2" d="M0 760 H80 L140 820 H200 L260 880"/>
  <path class="t" d="M0 720 H60 L120 780 V840 L180 900 H260"/>
  <path class="t3" d="M0 680 H50 L100 730 H160"/>
  <path class="t" d="M30 1080 V1030 L70 990 H120"/>
  <path class="t2" d="M70 1080 V1050 L110 1010 V970"/>
  <path class="t" d="M120 1080 V1040 L160 1000 H210 L250 960"/>
  <path class="t2" d="M180 1080 V1020 L220 980 H270"/>
  <path class="t3" d="M240 1080 V1030 L280 990"/>
  <path class="t" d="M300 1080 V1010 L340 970 V920 L380 880"/>
  <circle class="ng" cx="60" cy="1040" r="3"/>
  <circle class="nb" cx="70" cy="990" r="5"/>
  <circle class="ng" cx="130" cy="1000" r="3"/>
  <circle class="ng" cx="180" cy="930" r="2.5"/>
  <circle class="nb" cx="140" cy="1040" r="4"/>
  <circle class="ng" cx="250" cy="980" r="3"/>
  <circle class="n" cx="200" cy="880" r="2"/>
  <circle class="nb" cx="30" cy="1030" r="4"/>
  <circle class="ng" cx="260" cy="880" r="2.5"/>

  <!-- ═══ BOTTOM-RIGHT ═══ -->
  <path class="t" d="M1920 1040 H1860 L1820 1080"/>
  <path class="t" d="M1920 1025 H1870 L1830 1065 H1790 L1760 1080"/>
  <path class="t2" d="M1920 1010 H1880 L1840 1050 H1800"/>
  <path class="t" d="M1920 990 H1850 L1810 1030 V1060 L1790 1080"/>
  <path class="t2" d="M1920 970 H1865 L1825 1010 H1780 L1750 1040"/>
  <path class="t" d="M1920 950 H1840 L1790 1000 H1740 L1710 1030 V1080"/>
  <path class="t2" d="M1920 930 H1860 L1820 970 V1000 L1780 1040"/>
  <path class="t3" d="M1920 910 H1880 L1840 950 H1790"/>
  <path class="t" d="M1920 880 H1830 L1780 930 H1720 L1670 980 V1020"/>
  <path class="t2" d="M1920 850 H1850 L1800 900 H1740"/>
  <path class="t" d="M1920 820 H1820 L1760 880 V920 L1700 980 H1640"/>
  <path class="t3" d="M1920 790 H1860 L1810 840 H1750"/>
  <path class="t2" d="M1920 760 H1840 L1780 820 H1720 L1660 880"/>
  <path class="t" d="M1920 720 H1860 L1800 780 V840 L1740 900 H1660"/>
  <path class="t3" d="M1920 680 H1870 L1820 730 H1760"/>
  <path class="t" d="M1890 1080 V1030 L1850 990 H1800"/>
  <path class="t2" d="M1850 1080 V1050 L1810 1010 V970"/>
  <path class="t" d="M1800 1080 V1040 L1760 1000 H1710 L1670 960"/>
  <path class="t2" d="M1740 1080 V1020 L1700 980 H1650"/>
  <path class="t3" d="M1680 1080 V1030 L1640 990"/>
  <path class="t" d="M1620 1080 V1010 L1580 970 V920 L1540 880"/>
  <circle class="ng" cx="1860" cy="1040" r="3"/>
  <circle class="nb" cx="1850" cy="990" r="5"/>
  <circle class="ng" cx="1790" cy="1000" r="3"/>
  <circle class="ng" cx="1740" cy="930" r="2.5"/>
  <circle class="nb" cx="1780" cy="1040" r="4"/>
  <circle class="ng" cx="1670" cy="980" r="3"/>
  <circle class="n" cx="1720" cy="880" r="2"/>
  <circle class="nb" cx="1890" cy="1030" r="4"/>
  <circle class="ng" cx="1660" cy="880" r="2.5"/>

  <!-- ═══ EDGE WISPS ═══ -->
  <path class="t3" d="M0 460 H40 L80 420"/>
  <path class="t3" d="M0 540 H30 L60 510"/>
  <path class="t3" d="M0 620 H50 L90 580"/>
  <path class="t3" d="M1920 460 H1880 L1840 420"/>
  <path class="t3" d="M1920 540 H1890 L1860 510"/>
  <path class="t3" d="M1920 620 H1870 L1830 580"/>
  <path class="t3" d="M500 0 V30 L540 70"/>
  <path class="t3" d="M700 0 V20"/>
  <path class="t3" d="M1200 0 V25"/>
  <path class="t3" d="M1420 0 V30 L1380 70"/>
  <path class="t3" d="M500 1080 V1050 L540 1010"/>
  <path class="t3" d="M700 1080 V1060"/>
  <path class="t3" d="M1200 1080 V1055"/>
  <path class="t3" d="M1420 1080 V1050 L1380 1010"/>

  <!-- ═══ CENTER DUST ═══ -->
  <circle class="n" cx="600" cy="350" r="1" opacity="0.2"/>
  <circle class="n" cx="750" cy="420" r="0.8" opacity="0.15"/>
  <circle class="n" cx="900" cy="380" r="1" opacity="0.2"/>
  <circle class="n" cx="1050" cy="450" r="0.8" opacity="0.15"/>
  <circle class="n" cx="1200" cy="400" r="1" opacity="0.2"/>
  <circle class="n" cx="1350" cy="350" r="0.8" opacity="0.15"/>
  <circle class="n" cx="680" cy="550" r="1" opacity="0.15"/>
  <circle class="n" cx="850" cy="600" r="0.8" opacity="0.12"/>
  <circle class="n" cx="1100" cy="580" r="1" opacity="0.15"/>
  <circle class="n" cx="1250" cy="650" r="0.8" opacity="0.12"/>
  <circle class="n" cx="960" cy="500" r="0.8" opacity="0.1"/>
</svg>
