<svg xmlns="http://www.w3.org/2000/svg" viewBox="0 0 3840 1500" preserveAspectRatio="xMidYMid slice">
  <defs>
    <linearGradient id="bg" x1="0" y1="0" x2="1" y2="1">
      <stop offset="0" stop-color="#17263f"/>
      <stop offset=".44" stop-color="#365f9b"/>
      <stop offset="1" stop-color="#98bfcc"/>
    </linearGradient>
    <radialGradient id="glow" cx=".78" cy=".16" r=".72">
      <stop offset="0" stop-color="#dcecff" stop-opacity=".60"/>
      <stop offset=".45" stop-color="#8bb7d5" stop-opacity=".22"/>
      <stop offset="1" stop-color="#15223c" stop-opacity="0"/>
    </radialGradient>
    <filter id="grain" x="-20%" y="-20%" width="140%" height="140%">
      <feTurbulence type="fractalNoise" baseFrequency=".72" numOctaves="3" seed="91"/>
      <feColorMatrix type="saturate" values=".22"/>
      <feComponentTransfer>
        <feFuncA type="table" tableValues="0 .18"/>
      </feComponentTransfer>
    </filter>
    <linearGradient id="line" x1="0" y1="0" x2="1" y2="0">
      <stop offset="0" stop-color="#ffffff" stop-opacity=".05"/>
      <stop offset=".5" stop-color="#ffffff" stop-opacity=".33"/>
      <stop offset="1" stop-color="#ffffff" stop-opacity=".08"/>
    </linearGradient>
  </defs>
  <rect width="3840" height="1500" fill="url(#bg)"/>
  <rect width="3840" height="1500" fill="url(#glow)"/>
  <path d="M-140 960 C 520 670 1080 704 1770 836 C 2520 980 3038 785 4010 376 L 4010 1500 L -140 1500 Z" fill="#edf6ff" opacity=".16"/>
  <path d="M1360 -130 C 1740 292 2300 374 2920 216 C 3350 106 3708 268 4040 562 L 4040 -130 Z" fill="#07182c" opacity=".22"/>
  <path d="M-145 1128 C 675 812 1286 824 1970 972 C 2670 1124 3188 906 4035 600" fill="none" stroke="url(#line)" stroke-width="7" opacity=".58"/>
  <path d="M-115 1218 C 735 922 1365 926 2040 1068 C 2760 1220 3290 1000 4028 724" fill="none" stroke="#d5e8ff" stroke-width="3" stroke-opacity=".20"/>
  <path d="M2840 -190 C 2708 310 2602 688 2360 1040 C 2206 1264 2030 1398 1828 1510" fill="none" stroke="#ffffff" stroke-opacity=".11" stroke-width="18"/>
  <path d="M3056 -150 C 2916 334 2810 710 2560 1068 C 2396 1304 2230 1432 2058 1510" fill="none" stroke="#ffffff" stroke-opacity=".08" stroke-width="6"/>
  <rect width="3840" height="1500" filter="url(#grain)" opacity=".46"/>
</svg>
