<svg xmlns="http://www.w3.org/2000/svg" viewBox="0 0 3840 1500" preserveAspectRatio="xMidYMid slice">
  <defs>
    <linearGradient id="bg" x1="0" y1="0" x2="1" y2="1">
      <stop offset="0" stop-color="#f7fbff"/>
      <stop offset=".46" stop-color="#cfe7dd"/>
      <stop offset="1" stop-color="#477b67"/>
    </linearGradient>
    <radialGradient id="wash" cx=".24" cy=".22" r=".78">
      <stop offset="0" stop-color="#ffffff" stop-opacity=".86"/>
      <stop offset=".48" stop-color="#dff1ea" stop-opacity=".35"/>
      <stop offset="1" stop-color="#2e5c8a" stop-opacity="0"/>
    </radialGradient>
    <filter id="grain" x="-20%" y="-20%" width="140%" height="140%">
      <feTurbulence type="fractalNoise" baseFrequency=".7" numOctaves="3" seed="31"/>
      <feColorMatrix type="saturate" values=".36"/>
      <feComponentTransfer>
        <feFuncA type="table" tableValues="0 .16"/>
      </feComponentTransfer>
    </filter>
  </defs>
  <rect width="3840" height="1500" fill="url(#bg)"/>
  <rect width="3840" height="1500" fill="url(#wash)"/>
  <path d="M-140 1018 C 524 668 1108 660 1792 832 C 2460 1000 3090 870 4000 356 L 4000 1500 L -140 1500 Z" fill="#ffffff" opacity=".22"/>
  <path d="M1560 -140 C 1830 252 2310 408 2840 330 C 3255 268 3610 358 4020 592 L 4020 -140 Z" fill="#2e5c8a" opacity=".13"/>
  <path d="M-150 1214 C 705 826 1316 836 1950 996 C 2694 1184 3188 930 4025 628" fill="none" stroke="#ffffff" stroke-width="5" stroke-opacity=".32"/>
  <path d="M-180 1110 C 684 754 1320 742 1974 876 C 2675 1018 3184 800 4050 492" fill="none" stroke="#2e5c8a" stroke-width="3" stroke-opacity=".16"/>
  <rect width="3840" height="1500" filter="url(#grain)" opacity=".42"/>
</svg>
