<svg xmlns="http://www.w3.org/2000/svg" viewBox="0 0 3840 1500" preserveAspectRatio="xMidYMid slice">
  <defs>
    <linearGradient id="bg" x1="0" y1="0" x2="1" y2="1">
      <stop offset="0" stop-color="#1e6c66"/>
      <stop offset=".48" stop-color="#4f8c76"/>
      <stop offset="1" stop-color="#b7c18b"/>
    </linearGradient>
    <radialGradient id="light" cx=".74" cy=".18" r=".72">
      <stop offset="0" stop-color="#d7e1ba" stop-opacity=".72"/>
      <stop offset=".45" stop-color="#7eb29c" stop-opacity=".22"/>
      <stop offset="1" stop-color="#153f4f" stop-opacity="0"/>
    </radialGradient>
    <filter id="grain" x="-20%" y="-20%" width="140%" height="140%">
      <feTurbulence type="fractalNoise" baseFrequency=".72" numOctaves="3" seed="19"/>
      <feColorMatrix type="saturate" values="0"/>
      <feComponentTransfer>
        <feFuncA type="table" tableValues="0 .20"/>
      </feComponentTransfer>
    </filter>
    <linearGradient id="stroke" x1="0" y1="0" x2="1" y2="0">
      <stop offset="0" stop-color="#ffffff" stop-opacity=".08"/>
      <stop offset=".54" stop-color="#ffffff" stop-opacity=".32"/>
      <stop offset="1" stop-color="#ffffff" stop-opacity=".10"/>
    </linearGradient>
  </defs>
  <rect width="3840" height="1500" fill="url(#bg)"/>
  <rect width="3840" height="1500" fill="url(#light)"/>
  <path d="M-180 935 C 640 685 1010 910 1680 748 C 2450 562 2705 62 4020 -130 L 4020 1500 L -180 1500 Z" fill="#dbe5c6" opacity=".18"/>
  <path d="M1090 -70 C 1590 322 2230 248 2755 -26 C 3030 -169 3375 -201 4030 -120 L 4030 1500 L 2340 1500 C 2665 1118 2860 736 2958 352 C 2470 601 1980 721 1495 710 C 1025 699 568 568 -40 715 L -40 -70 Z" fill="#0f4d61" opacity=".18"/>
  <path d="M-120 1194 C 558 876 1055 944 1594 1042 C 2340 1177 2702 825 4020 452" fill="none" stroke="url(#stroke)" stroke-width="6" opacity=".56"/>
  <path d="M-100 1262 C 540 996 1128 1008 1704 1124 C 2425 1268 2840 962 4030 674" fill="none" stroke="#eff7e7" stroke-opacity=".18" stroke-width="3"/>
  <path d="M2785 -150 C 2590 360 2545 846 2130 1500" fill="none" stroke="#f4ecd0" stroke-opacity=".20" stroke-width="12"/>
  <path d="M2902 -170 C 2700 370 2670 910 2248 1510" fill="none" stroke="#ffffff" stroke-opacity=".10" stroke-width="4"/>
  <rect width="3840" height="1500" filter="url(#grain)" opacity=".38"/>
</svg>
