<svg xmlns="http://www.w3.org/2000/svg" viewBox="0 0 3840 1500" preserveAspectRatio="xMidYMid slice">
  <defs>
    <linearGradient id="bg" x1="0" y1="0" x2="1" y2="1">
      <stop offset="0" stop-color="#fff8f0"/>
      <stop offset=".42" stop-color="#e9b9a9"/>
      <stop offset=".74" stop-color="#c98f84"/>
      <stop offset="1" stop-color="#8c674f"/>
    </linearGradient>
    <radialGradient id="wash" cx=".24" cy=".16" r=".82">
      <stop offset="0" stop-color="#ffffff" stop-opacity=".88"/>
      <stop offset=".48" stop-color="#fff0e8" stop-opacity=".40"/>
      <stop offset="1" stop-color="#5f86a6" stop-opacity="0"/>
    </radialGradient>
    <linearGradient id="metal" x1="0" y1="0" x2="1" y2="0">
      <stop offset="0" stop-color="#ffffff" stop-opacity=".08"/>
      <stop offset=".54" stop-color="#ffe2d8" stop-opacity=".36"/>
      <stop offset="1" stop-color="#ffffff" stop-opacity=".06"/>
    </linearGradient>
    <filter id="grain" x="-20%" y="-20%" width="140%" height="140%">
      <feTurbulence type="fractalNoise" baseFrequency=".72" numOctaves="3" seed="39"/>
      <feColorMatrix type="saturate" values=".34"/>
      <feComponentTransfer>
        <feFuncA type="table" tableValues="0 .16"/>
      </feComponentTransfer>
    </filter>
  </defs>
  <rect width="3840" height="1500" fill="url(#bg)"/>
  <rect width="3840" height="1500" fill="url(#wash)"/>
  <path d="M-120 988 C 620 642 1125 616 1800 810 C 2438 994 3050 872 3960 348 L 3960 1500 L -120 1500 Z" fill="#fff9f4" opacity=".30"/>
  <path d="M1040 -130 C 1380 266 1910 400 2462 280 C 2910 184 3348 270 4010 580 L 4010 -130 Z" fill="#5f86a6" opacity=".14"/>
  <path d="M-130 1210 C 730 820 1320 852 1940 1018 C 2660 1210 3190 950 4020 640" fill="none" stroke="url(#metal)" stroke-width="7" opacity=".80"/>
  <path d="M-160 1098 C 704 720 1330 742 1975 890 C 2640 1044 3190 816 4040 496" fill="none" stroke="#6a9bcc" stroke-width="3" stroke-opacity=".10"/>
  <rect width="3840" height="1500" filter="url(#grain)" opacity=".44"/>
</svg>
