<svg xmlns="http://www.w3.org/2000/svg" viewBox="0 0 3840 1500" preserveAspectRatio="xMidYMid slice">
  <defs>
    <linearGradient id="bg" x1="0" y1="0" x2="1" y2="1">
      <stop offset="0" stop-color="#111827"/>
      <stop offset=".36" stop-color="#26324a"/>
      <stop offset=".70" stop-color="#566b8e"/>
      <stop offset="1" stop-color="#d6a35c"/>
    </linearGradient>
    <radialGradient id="lamp" cx=".72" cy=".18" r=".74">
      <stop offset="0" stop-color="#f6e5b8" stop-opacity=".62"/>
      <stop offset=".36" stop-color="#8ea6c9" stop-opacity=".24"/>
      <stop offset="1" stop-color="#111827" stop-opacity="0"/>
    </radialGradient>
    <linearGradient id="goldLine" x1="0" y1="0" x2="1" y2="0">
      <stop offset="0" stop-color="#fff2c8" stop-opacity=".06"/>
      <stop offset=".50" stop-color="#f0c879" stop-opacity=".52"/>
      <stop offset="1" stop-color="#fff2c8" stop-opacity=".10"/>
    </linearGradient>
    <linearGradient id="silverLine" x1="0" y1="0" x2="1" y2="0">
      <stop offset="0" stop-color="#ffffff" stop-opacity=".04"/>
      <stop offset=".46" stop-color="#dbe7f6" stop-opacity=".30"/>
      <stop offset="1" stop-color="#ffffff" stop-opacity=".06"/>
    </linearGradient>
    <filter id="grain" x="-20%" y="-20%" width="140%" height="140%">
      <feTurbulence type="fractalNoise" baseFrequency=".82" numOctaves="3" seed="181"/>
      <feColorMatrix type="saturate" values=".28"/>
      <feComponentTransfer>
        <feFuncA type="table" tableValues="0 .17"/>
      </feComponentTransfer>
    </filter>
  </defs>
  <rect width="3840" height="1500" fill="url(#bg)"/>
  <rect width="3840" height="1500" fill="url(#lamp)"/>
  <path d="M-180 1114 C 540 754 1218 732 1940 884 C 2672 1038 3186 820 4040 400 L 4040 1500 L -180 1500 Z" fill="#f7edd5" opacity=".17"/>
  <path d="M980 -190 C 1336 242 2030 386 2800 150 C 3320 -8 3720 190 4040 518 L 4040 -190 Z" fill="#070d17" opacity=".34"/>
  <path d="M-180 510 C 740 230 1480 280 2220 486 C 2930 684 3394 568 4040 310" fill="#ffffff" opacity=".05"/>
  <g fill="none" stroke-linecap="round">
    <path d="M-140 878 C 600 648 1250 672 1950 808 C 2688 952 3228 760 4060 468" stroke="url(#silverLine)" stroke-width="9" opacity=".74"/>
    <path d="M-130 1044 C 654 792 1320 808 2040 950 C 2780 1094 3310 884 4060 648" stroke="url(#goldLine)" stroke-width="8" opacity=".78"/>
    <path d="M-120 1228 C 785 980 1440 982 2168 1118 C 2908 1256 3380 1062 4050 844" stroke="#ffffff" stroke-width="3" stroke-opacity=".16"/>
  </g>
  <g opacity=".25" fill="none" stroke="#ffffff" stroke-linecap="round">
    <path d="M2512 -150 L2298 1510" stroke-width="5"/>
    <path d="M2794 -150 L2530 1510" stroke-width="3"/>
    <path d="M3118 -120 L2834 1510" stroke-width="3"/>
  </g>
  <g opacity=".34">
    <circle cx="2684" cy="650" r="22" fill="#e6eef8"/>
    <circle cx="2948" cy="576" r="15" fill="#e6eef8"/>
    <circle cx="3198" cy="508" r="12" fill="#e6eef8"/>
    <circle cx="2920" cy="926" r="15" fill="#f3d38c"/>
    <circle cx="3158" cy="860" r="11" fill="#f3d38c"/>
  </g>
  <rect width="3840" height="1500" filter="url(#grain)" opacity=".50"/>
</svg>
